HIERARCHY
ROOT Hips
{
	OFFSET	0.00	0.00	0.00
	CHANNELS 6 Xposition Yposition Zposition Zrotation Xrotation Yrotation
	JOINT Chest
	{
		OFFSET	0.000000	6.275751	0.000000
		CHANNELS 3 Zrotation Xrotation Yrotation
		JOINT Neck
		{
			OFFSET	0.000000	14.296947	0.000000
			CHANNELS 3 Zrotation Xrotation Yrotation
			JOINT Head
			{
				OFFSET	0.000000	2.637461	0.000000
				CHANNELS 3 Zrotation Xrotation Yrotation
				End Site
				{
					OFFSET	0.000000	4.499004	0.000000
				}
			}
		}
		JOINT LeftCollar
		{
			OFFSET	1.120000	11.362855	1.870000
			CHANNELS 3 Zrotation Xrotation Yrotation
			JOINT LeftUpArm
			{
				OFFSET	4.565688	2.019026	-1.821179
				CHANNELS 3 Zrotation Xrotation Yrotation
				JOINT LeftLowArm
				{
					OFFSET	0.219729	-10.348825	-0.061708
					CHANNELS 3 Zrotation Xrotation Yrotation
					JOINT LeftHand
					{
						OFFSET	0.087892	-10.352228	2.178217
						CHANNELS 3 Zrotation Xrotation Yrotation
						End Site
						{
							OFFSET	0.131837	-6.692379	1.711456
						}
					}
				}
			}
		}
		JOINT RightCollar
		{
			OFFSET	-1.120000	11.362855	1.870000
			CHANNELS 3 Zrotation Xrotation Yrotation
			JOINT RightUpArm
			{
				OFFSET	-4.708080	2.034554	-1.821179
				CHANNELS 3 Zrotation Xrotation Yrotation
				JOINT RightLowArm
				{
					OFFSET	-0.263676	-10.428555	-0.061708
					CHANNELS 3 Zrotation Xrotation Yrotation
					JOINT RightHand
					{
						OFFSET	0.000000	-10.255345	2.178217
						CHANNELS 3 Zrotation Xrotation Yrotation
						End Site
						{
							OFFSET	-0.140882	-6.671274	1.711456
						}
					}
				}
			}
		}
	}
	JOINT LeftUpLeg
	{
		OFFSET	3.910000	0.000000	0.000000
		CHANNELS 3 Zrotation Xrotation Yrotation
		JOINT LeftLowLeg
		{
			OFFSET	-0.441177	-17.569450	1.695613
			CHANNELS 3 Zrotation Xrotation Yrotation
			JOINT LeftFoot
			{
				OFFSET	-0.043946	-17.197315	-1.478076
				CHANNELS 3 Zrotation Xrotation Yrotation
				End Site
				{
					OFFSET	0.000000	-3.933155	5.233925
				}
			}
		}
	}
	JOINT RightUpLeg
	{
		OFFSET	-3.910000	0.000000	0.000000
		CHANNELS 3 Zrotation Xrotation Yrotation
		JOINT RightLowLeg
		{
			OFFSET	0.437741	-17.622387	1.695613
			CHANNELS 3 Zrotation Xrotation Yrotation
			JOINT RightFoot
			{
				OFFSET	0.000000	-17.140001	-1.478076
				CHANNELS 3 Zrotation Xrotation Yrotation
				End Site
				{
					OFFSET	0.000000	-4.038528	5.233925
				}
			}
		}
	}
}
MOTION
Frames: 16
Frame Time: 0.04166667
-1.181319	3.962212	-2.681495	20.097525	-8.971371	61.542805	7.401907	-0.824681	-10.633613	7.398032	16.832369	6.228785	-11.182833	3.256362	-2.672510	-1.760915	-12.637461	-18.796993	9.839746	5.086125	-61.727146	1.760216	-14.756787	-0.125639	-4.918234	2.507422	-1.044027	6.373522	-13.553136	8.394179	-24.151649	36.283844	-23.774122	3.152917	4.397943	1.894976	-32.908871	4.372505	-6.692104	-8.596652	36.315624	23.909842	-1.252864	12.307818	1.608855	-10.827663	-10.796973	-1.114935	-3.108540	2.413725	-1.199323	2.991834	9.711123	9.843215	-4.999399	8.395845	6.270860	
-0.889621	4.064977	-2.196037	21.212015	-9.013403	62.727024	6.263392	-0.425067	-11.212588	8.495358	16.067228	5.927101	-11.195191	2.378886	-2.851592	-0.305088	-13.241497	-18.992256	9.824642	4.707304	-63.367332	2.717708	-17.132723	-1.779136	-3.414159	2.484226	-0.725186	7.266285	-14.293970	7.861847	-21.837395	37.843746	-26.512304	3.100467	4.351325	1.866705	-31.563366	4.218013	-6.446397	-7.868469	37.663872	20.648540	-1.004041	13.363046	2.720855	-12.477046	-8.507399	-0.764914	-3.488606	3.881382	-3.170127	3.044051	11.990336	10.788639	-6.235624	6.301226	6.363773	
-0.025817	4.170438	-1.701500	21.884769	-9.238293	64.112328	6.086756	-0.264792	-11.978804	8.917645	15.182094	5.957345	-11.236615	1.786941	-2.981255	0.575798	-13.114285	-18.802599	10.442023	3.760111	-64.867157	3.362558	-19.588177	-3.105079	-3.229687	2.481947	-0.686070	8.023746	-14.267687	7.539053	-20.131388	38.117195	-26.891117	3.023747	4.588088	1.640060	-29.451847	3.987306	-6.053870	-6.256560	37.881649	17.151262	-0.763914	15.910960	3.578299	-13.531448	-6.203523	-0.267760	-3.476989	5.572469	-4.768235	3.013662	13.492558	11.205554	-6.422060	3.998167	6.149326	
0.690715	4.278097	-1.179744	22.465067	-9.403891	65.519669	5.948251	-0.307099	-12.531316	9.253521	14.440924	6.086567	-11.205895	1.316841	-3.066748	1.404186	-12.969358	-18.881752	11.224353	3.318681	-65.374352	3.609104	-22.027323	-4.150792	-2.941010	2.478693	-0.624772	8.699877	-14.178360	7.302125	-18.807402	37.891666	-25.092697	2.982984	5.055714	1.343234	-28.292477	3.866881	-5.834961	-4.646985	37.890671	13.648622	-0.536352	18.402260	4.269364	-14.720786	-3.381382	0.459663	-3.297934	7.697824	-5.567643	2.937147	14.115898	10.863223	-6.328058	1.675137	5.876491	
1.602405	4.372747	-0.626632	22.927542	-9.545341	66.852333	5.705290	-0.566335	-12.743373	9.589943	13.993855	6.155455	-11.087040	0.939422	-3.107742	2.211873	-13.234851	-18.939333	12.030414	3.636953	-66.096458	3.880949	-24.339005	-5.375538	-3.318683	2.483099	-0.704923	9.128055	-14.478106	7.186281	-17.422489	37.739780	-21.848982	2.643642	5.237736	1.135199	-26.270262	3.667533	-5.447595	-3.060235	37.888260	10.090590	-0.390081	20.490593	4.589148	-15.916106	-0.071272	1.450357	-2.885025	9.668509	-6.398449	2.898417	14.834213	10.399997	-7.054619	-0.327811	5.730644	
2.648080	4.451480	-0.051323	23.427244	-9.242741	68.400993	4.295551	-0.610358	-12.742873	10.633761	13.523960	6.020375	-10.916631	0.597901	-3.124862	3.359819	-13.584457	-19.374807	13.185377	4.463479	-66.097847	4.027850	-26.293045	-6.655551	-3.120437	2.480642	-0.662851	10.291419	-15.034630	6.930652	-16.454594	37.215858	-21.519520	2.068295	4.709464	1.255471	-23.636786	3.428733	-4.933412	-1.668116	37.802826	6.201250	-0.333834	22.135208	4.608635	-17.404480	3.526129	2.724672	-2.666035	11.593268	-7.722035	2.863005	15.374157	10.098269	-8.093585	-2.224918	5.569341	
3.159563	4.434996	0.504810	23.280518	-9.289358	69.417313	4.327468	-1.252154	-12.702480	10.485977	13.428668	6.404810	-10.908788	0.194081	-3.200553	3.429993	-13.667454	-19.354239	14.455841	5.768198	-65.183403	3.971928	-27.495958	-7.354513	-2.409344	2.473360	-0.511896	10.537324	-15.091363	7.177001	-15.833070	36.144360	-13.734518	1.304226	4.991042	1.061842	-20.824970	3.200203	-4.373337	-0.175367	37.132339	2.734571	-0.327398	24.213221	4.352743	-18.945017	6.253825	3.916194	-2.046543	12.773481	-9.495701	2.860688	16.347034	10.552682	-9.238362	-4.225155	5.324482	
3.996052	4.363776	1.036329	22.995083	-9.352264	70.436287	4.456502	-1.689205	-12.469940	10.265523	13.357785	6.727306	-11.078207	-0.217464	-3.332133	3.353897	-13.736743	-19.415838	15.579702	7.419077	-63.592121	4.078721	-27.883425	-7.952197	-2.029974	2.470290	-0.431319	10.624759	-15.163780	7.344465	-15.498949	34.442783	-9.846075	0.508994	4.878375	1.018678	-17.404968	2.959762	-3.678584	1.347236	35.936180	0.522771	-0.393045	27.059662	3.896572	-18.882177	8.205903	4.547836	-1.385174	13.807811	-11.253889	2.822935	17.207508	11.109899	-9.771874	-6.334939	4.978162	
4.763047	4.263234	1.511767	22.678526	-9.293813	71.689369	4.628161	-1.524442	-12.184898	10.017023	12.979472	7.002410	-11.447809	-0.501009	-3.503705	2.852654	-12.351475	-18.725313	17.242043	7.359415	-61.707111	3.916353	-26.742022	-7.003088	-1.374374	2.466179	-0.292056	11.348619	-14.231633	7.070825	-16.163265	30.819696	-4.480422	-1.130554	4.433783	1.223112	-13.158872	2.719690	-2.798839	2.855241	33.589676	0.113051	-0.547530	31.648758	3.332788	-15.217501	9.343403	3.875828	-0.767115	14.596758	-12.845504	2.783291	18.056150	11.425571	-10.167776	-8.307742	4.621510	
5.132224	4.085261	1.938619	21.971863	-9.721133	73.009979	6.212183	-2.004426	-11.928850	8.774967	13.459478	7.130609	-11.785495	-0.777156	-3.667533	1.984255	-12.253805	-18.399128	17.187155	8.835900	-59.138947	3.554938	-23.846600	-5.058579	-1.091975	2.464842	-0.232073	10.743376	-13.857898	7.581753	-15.979559	27.894516	-1.875806	-3.978327	4.407407	1.558986	-9.982864	2.583081	-2.130913	4.956816	30.006397	0.574555	-0.775192	38.158886	3.249475	-9.876916	9.171283	2.382204	0.433499	14.904361	-14.124746	2.769883	19.073208	11.338531	-10.283474	-10.266521	4.260268	
5.503605	3.892416	2.303269	21.557339	-9.671155	75.423943	6.764797	-1.309783	-11.833447	8.313114	13.433065	6.457222	-11.943901	-0.858229	-3.735411	1.787619	-11.692702	-17.908722	16.706169	8.521051	-55.776688	2.973744	-19.292347	-3.016380	-0.818072	2.463892	-0.173873	10.548303	-13.404940	7.500048	-15.892252	23.380537	2.421468	-6.413827	5.821653	1.554946	-4.746246	2.439213	-1.016895	6.977465	24.968523	-0.609056	-1.083678	45.712563	4.121686	-8.015094	10.968924	2.128878	1.448578	15.133682	-16.408792	2.758369	20.024532	11.043254	-10.459085	-12.104121	3.907622	
5.953291	3.676594	2.627763	21.373667	-9.520829	78.108704	7.375826	0.034841	-11.456411	7.733254	13.500501	5.243745	-11.710101	-0.827644	-3.653795	1.088134	-10.130179	-17.288197	16.583416	6.637853	-48.793716	1.197194	-13.621139	-0.565043	-18.249046	3.075054	-3.816010	10.986746	-11.871222	7.535438	-17.450796	17.080967	2.397002	-6.752798	7.325716	1.763121	-2.813085	2.411873	-0.603174	9.091924	18.798664	-1.085588	-0.692822	53.651100	3.980813	-9.147092	16.986134	3.362596	2.466802	15.173363	-18.422085	2.697992	21.209351	10.203285	-10.779223	-13.847219	3.542310	
6.300701	3.471736	2.906699	21.556416	-8.900465	80.896484	7.296467	2.010394	-10.611134	7.468301	13.874349	3.472773	-11.208518	-0.610037	-3.450008	0.310879	-8.894051	-16.782053	16.092117	4.344230	-41.622871	0.377459	-7.555109	0.123915	-15.239842	2.890707	-3.202482	11.370359	-10.820246	7.669006	-19.512379	12.005233	0.964401	-5.763638	6.824442	2.198041	-6.843741	2.484604	-1.464599	9.992297	11.863999	-2.319200	-0.011933	62.091106	3.153303	-12.846127	23.072258	6.079054	3.037651	15.046755	-20.141438	2.584068	22.740288	8.790250	-11.256115	-15.402507	3.168661	
6.258214	3.219753	3.149971	21.153959	-8.692454	83.503479	8.457660	2.934989	-10.001001	6.213464	15.278661	1.899913	-10.446461	-0.270047	-3.147193	-1.645235	-8.550666	-16.312912	15.284828	3.444628	-34.992889	0.752698	-1.841210	0.013444	-16.925030	2.989958	-3.547269	10.675188	-10.083779	8.577978	-21.663477	8.485540	1.671084	-4.433457	5.146148	2.284539	-8.182156	2.522116	-1.749336	10.953405	3.670170	-2.095289	1.778088	71.145905	2.226376	-11.679317	26.970617	6.172420	4.084589	14.243618	-21.248795	2.421010	24.339611	6.903281	-11.507023	-17.028824	2.799483	
6.626747	2.981454	3.377431	20.293110	-8.956297	85.566170	10.488385	2.590533	-9.389571	4.160970	17.733961	0.708408	-9.433565	0.812417	-2.655798	-4.035333	-9.748364	-16.791920	13.858515	5.626441	-23.363966	1.151278	2.521674	-0.276771	-12.555703	2.753669	-2.648077	9.007796	-10.552520	10.235918	-23.371140	7.547802	5.169286	-3.797175	2.966761	2.341486	-6.299525	2.471251	-1.348635	12.051535	-4.717408	-1.295648	5.240286	78.968437	-1.916740	-9.041333	29.340096	5.010033	5.447831	13.169082	-22.002096	2.265009	25.640471	5.177801	-11.648078	-18.377422	2.498477	
7.058723	2.907301	3.644140	20.340288	-8.859125	86.933685	11.160978	3.410300	-8.308814	2.669719	19.860601	-0.560832	-8.583560	1.889645	-2.248826	-5.365975	-11.311820	-17.295639	12.678428	8.853688	-12.003771	0.946577	4.566363	0.007625	-15.410346	2.900301	-3.237528	7.810165	-11.845004	11.713256	-24.544266	7.488485	9.396966	-3.926661	0.245740	2.798330	-3.596506	2.421279	-0.770946	12.762186	-10.869357	-0.089823	10.255269	83.487610	-8.733247	-6.954153	31.781605	4.021828	6.431917	13.471542	-22.402964	2.110923	25.946228	3.613107	-11.986922	-19.088612	2.275964	
